<svg
   xmlns:dc="http://purl.org/dc/elements/1.1/"
   xmlns:cc="http://creativecommons.org/ns#"
   xmlns:rdf="http://www.w3.org/1999/02/22-rdf-syntax-ns#"
   xmlns:svg="http://www.w3.org/2000/svg"
   xmlns="http://www.w3.org/2000/svg"
   xmlns:sodipodi="http://sodipodi.sourceforge.net/DTD/sodipodi-0.dtd"
   xmlns:inkscape="http://www.inkscape.org/namespaces/inkscape"
   version="1.1"
   id="Layer_1"
   x="0px"
   y="0px"
   viewBox="0 0 1135.9663 1030.1511"
   enable-background="new 0 0 745 507"
   xml:space="preserve"
   inkscape:version="0.91 r13725"
   sodipodi:docname="logo.svg"><metadata
     id="metadata8"><rdf:RDF><cc:Work
         rdf:about=""><dc:format>image/svg+xml</dc:format><dc:type
           rdf:resource="http://purl.org/dc/dcmitype/StillImage" /><dc:title></dc:title><dc:date>2016</dc:date><dc:creator><cc:Agent><dc:title>Lazur</dc:title></cc:Agent></dc:creator><dc:description>Original raster images of this series were uploaded by NicholasJudy456 to openclipart embedded in svg-s (416 in total).  This is one of the refixes upon request by the original author.</dc:description></cc:Work></rdf:RDF></metadata><defs
     id="defs6" /><sodipodi:namedview
     pagecolor="#ff6d43"
     bordercolor="#666666"
     borderopacity="1"
     objecttolerance="10"
     gridtolerance="10"
     guidetolerance="10"
     inkscape:pageopacity="0"
     inkscape:pageshadow="2"
     id="namedview4"
     showgrid="false"
     borderlayer="true"
     fit-margin-top="0"
     fit-margin-left="0"
     fit-margin-right="0"
     fit-margin-bottom="0" /><path
     d="m 1050.5,1030.0956 -5,-0.056 -5.3614,-2.6891 -5.3614,-2.6892 -5.3653,-10.6869 -5.3653,-10.6869 -3.2667,0.9369 -7.3271,0.9369 -4.0605,0 -3.0949,-3.25 -3.0949,-3.25004 -4.0947,-8.2149 -4.0948,-8.2148 -8.1593,3.4923 -8.1593,3.4923 -5.5972,-4.3866 -11.31253,-7.6033 -5.71533,-3.2168 -2.76088,-7.4241 -2.76089,-7.4241 -0.78244,0 -4.92383,3 -4.14138,3 -6.11331,0 -6.11331,0 -5.48665,-3.6224 -5.48665,-3.62248 -7.33027,-7.12756 -7.33027,-7.12756 -3.7893,-7.5 -3.78929,-7.5 -0.69612,-6.62014 -0.69612,-6.62014 1.69366,-5.87986 3.96106,-10.39015 2.2674,-4.51028 -10.1372,-7.23708 -10.13721,-7.23708 -30.02548,-10.00832 -30.02548,-10.00832 -38.48269,-5.015 -38.48269,-5.015 -46,1.56011 -46,1.56011 -64.85463,4.46058 -64.85464,4.46057 -41.32687,0 -41.32687,0 -52.23464,-4.0457 -52.23464,-4.04571 -68.09198,-9.89758 -68.09199,-9.89759 -18.49187,-1.59341 L 162.5,831.08826 128,821.59256 91.00249,811.03793 70.788552,798.91955 53.072123,787.8601 40.89715,773.92252 26.33421,757.147 l -2.387967,-2.83794 1.096125,-13.72721 1.096125,-13.72722 5.843098,-11.65625 5.843098,-11.65624 8.164948,-4.93593 8.164947,-4.93592 -2.327292,-0.65464 -5.719229,-0.75431 -3.391938,-0.0997 -6.608062,-4.15584 L 29.5,683.84998 21.153464,676.29528 12.806928,668.74058 7.873361,658.9093 2.939794,649.07802 1.469897,637.93342 0,626.78882 0.069935,617.72524 0.13987,608.66166 5.819935,595.37405 11.5,582.08645 28,562.54983 l 16.5,-19.53661 19.800111,-9.95563 19.800109,-9.95562 22.69989,-4.85719 22.69989,-4.85719 12,-0.69916 12.31976,-1.01606 -1.62407,-4.1638 -1.94382,-3.84691 -0.70715,-7.70621 -0.70715,-7.70622 10.60402,-20.45166 10.60401,-20.45167 17.85843,-11.62179 17.85843,-11.62178 23.36877,-2.94416 49.42297,-5.93856 71.39143,-7.55248 45.33722,-4.5581 20.10858,-4.99885 20.10857,-4.99884 24.50957,-11.00692 24.50957,-11.00692 15.49043,-12.95707 15.49043,-12.95707 7.1914,-15.53779 7.1914,-15.5378 8.48549,-26.72305 8.4855,-26.72306 1.09239,-15 3.56933,-34.55888 2.47694,-19.55887 5.81253,-13.44113 5.81253,-13.44112 9.86436,-14 9.86436,-14 13.32015,-14.11211 13.32015,-14.11211 6.53732,-14.328062 6.53732,-14.32805 5.50274,-8.72096 5.50275,-8.72097 17.21667,-10.047553 17.21667,-10.047557 24,-9.032867 24,-9.032866 12.17045,-0.0084 27.5,1.032052 15.32955,1.040499 15,4.893481 15,4.89348 17.16674,0.676984 17.16674,0.676984 25.83326,-8.573251 25.83326,-8.573252 16.32541,-1.097323 16.3254,-1.097323 7.34697,-3.348122 16.85358,-9.0212189 9.50661,-5.673096017396 5.54927,0.693335997396 5.54927,0.69333502 11.27179,8.442282 12.0139,9.1797329 4.2818,18.195211 3.5396,17.457761 -1.0803,10.956141 -1.0802,10.95614 -3.7016,4.38287 -6.4722,7.69875 -2.7707,3.31588 1.5401,13.178712 1.54,13.17871 -3.6456,14.1664 -3.6457,14.1664 -9.4997,20.73158 -9.49971,20.73158 -3.11121,1.96988 -3.11122,1.96988 -2.22408,-2.08942 -2.22409,-2.08942 2.4475,-4.17635 2.44751,-4.17634 1.50152,-16.9357 1.5138,-24.48092 0.0123,-7.54523 -2.79369,-8.31418 -2.7937,-8.31418 -4.20948,9.85941 -4.20948,9.85941 -1.47478,8.5 -1.47479,8.5 -3.58218,10.11348 -3.58219,10.11348 -6.68986,4.66948 -6.68985,4.66948 -0.86926,-3.92478 -0.86926,-3.92479 2.12582,-9.66616 2.12583,-9.66616 -2.75657,-9.44047 -3.33082,-9.44201 -8,5.60053 L 877,162.08281 l -23.5,16.717 -14.64906,7.93092 -14.64906,7.93093 -0.68205,6.26418 -0.68206,6.26419 7.68611,8.4661 7.68611,8.46609 12.17494,6.45878 12.17495,6.45877 32.28246,8.08242 32.28247,8.08242 28.60643,-1.54681 28.60646,-1.54682 2.8311,2.71243 2.8312,2.71243 0,4.66287 0,4.66287 -3.1279,4.40004 -3.8087,5.15873 -22.38988,9.69267 -21.70909,8.93397 -17.35993,2.61297 -17.35993,2.61298 -26.87229,-1.09909 -26.87228,-1.09908 -51.04076,-12.9324 -51.04077,-12.9324 -13.69468,5.38161 -13.69469,5.3816 -8.16917,7.34424 -8.16917,7.34424 -4.43309,9.5 -14.46675,33.5 -11.35258,26.58486 -14.94918,18.92813 -13.63027,16.34328 -1.94977,3.82186 -1.94977,3.82187 1.78294,0 32.27032,-1.04781 30.48739,-1.04781 52,3.08329 52,3.08329 47.5,4.45854 47.5,4.45853 21.69103,10.11861 21.69102,10.11861 4.68074,11.63737 7.05897,18.56253 2.37824,6.92515 0,6.30202 0,6.30202 -2.49517,6.62907 -2.49518,6.62907 16.24515,-0.67098 16.2452,-0.67099 21.5,4.5758 21.5,4.5758 14,5.45481 14,5.45481 14.5,3.02162 14.5,3.02163 13.8442,14.21126 13.8442,14.21127 8.889,17.75706 8.8889,17.75706 -2.4916,13.22266 -2.4916,13.22266 -7.5664,13.79497 -7.5664,13.79497 -15.6617,8.21648 -15.6617,8.21648 3.4866,0.87123 7.1222,1.81785 3.6357,0.94661 4.2898,5.74223 12.5096,14.24223 8.2198,8.5 0.7155,10.29082 0.7155,10.29081 -5.1809,13.80983 -5.1808,13.80983 -5.68,5.55562 -5.6799,5.55562 -14.5,10.13807 -14.5,10.13807 -10,3.09915 -27.9416,9.93901 -17.9416,6.83986 -33.0584,3.52221 -48.52487,5.58733 -15.46648,2.06513 -3.53352,-0.65986 -3.03353,-0.20378 13.64623,7.97711 13.14622,7.52101 6.76515,5.12135 6.76516,5.12135 2.58862,-1.67838 6.25172,-4.08465 3.6631,-2.40626 9.4109,2.5048 15.069,4.82538 5.6581,2.32057 12.0179,9.95279 12.0179,9.95278 0,10.72983 0,10.72982 1.75,0.52076 8.5089,2.05507 6.759,1.53431 4.8566,2.46103 4.8566,2.46103 1.6066,6.39609 4.6699,13.22351 3.0633,6.82742 -0.5998,4.57778 -1.1025,7.27119 -0.5027,2.69341 4.3171,1.11611 5.9443,1.58504 1.6273,0.46892 3.5303,5.31694 6.6227,11.44303 3.0924,6.12611 0,8.6477 0,8.64773 -3.5364,5.8215 -3.5364,5.8216 2.0364,7.9759 2.0364,7.9758 -0.081,5.33344 -0.081,5.3334 -1.1695,4.289 -1.1695,4.289 -10,7.9557 -10,7.9558 z"
     id="path3600"/></svg>