<?xml version="1.0" encoding="UTF-8" standalone="no"?>
<!-- Creator: CorelDRAW X6 -->

<svg
   xmlns:dc="http://purl.org/dc/elements/1.1/"
   xmlns:cc="http://creativecommons.org/ns#"
   xmlns:rdf="http://www.w3.org/1999/02/22-rdf-syntax-ns#"
   xmlns:svg="http://www.w3.org/2000/svg"
   xmlns="http://www.w3.org/2000/svg"
   xmlns:sodipodi="http://sodipodi.sourceforge.net/DTD/sodipodi-0.dtd"
   xmlns:inkscape="http://www.inkscape.org/namespaces/inkscape"
   xml:space="preserve"
   version="1.1"
   style="clip-rule:evenodd;fill-rule:evenodd;image-rendering:optimizeQuality;shape-rendering:geometricPrecision;text-rendering:geometricPrecision"
   viewBox="0 0 27826.999 18814"
   id="svg2"
   inkscape:version="0.91 r13725"
   sodipodi:docname="oa-logo.svg"><metadata
   id="metadata31"><rdf:RDF><cc:Work
       rdf:about=""><dc:format>image/svg+xml</dc:format><dc:type
         rdf:resource="http://purl.org/dc/dcmitype/StillImage" /><dc:title></dc:title></cc:Work></rdf:RDF></metadata><sodipodi:namedview
   pagecolor="#ffffff"
   bordercolor="#666666"
   borderopacity="1"
   objecttolerance="10"
   gridtolerance="10"
   guidetolerance="10"
   inkscape:pageopacity="0"
   inkscape:pageshadow="2"
   inkscape:window-width="1299"
   inkscape:window-height="745"
   id="namedview29"
   showgrid="false"
   fit-margin-top="0"
   fit-margin-left="0"
   fit-margin-right="0"
   fit-margin-bottom="0"
   inkscape:zoom="0.28127198"
   inkscape:cx="486.03543"
   inkscape:cy="326.92897"
   inkscape:window-x="59"
   inkscape:window-y="-8"
   inkscape:window-maximized="1"
   inkscape:current-layer="Ebene_x0020_1" />
 <defs
   id="defs4">
  <style
   type="text/css"
   id="style6">
  </style>
 </defs>
 <g
   id="Ebene_x0020_1"
   transform="translate(-1133,-1013)">
  <metadata
   id="CorelCorpID_0Corel-Layer" />
  
  
  
  
  
  <g
   class="oa-logo-rest"
   ><path
     
     id="path10"
     d="m 20603,3684 3315,0 4718,11549 -3898,0 -1591,-3813 c 834,-347 1420,-1168 1420,-2126 0,-1271 -1033,-2302 -2307,-2302 -1164,0 -2127,860 -2284,1979 l -1533,0 2160,-5286 z m -637,5843 c 86,856 643,1574 1408,1893 l -1591,3813 -3898,0 202,-495 -375,374 -130,130 -407,406 -130,130 -140,140 c -36,36 -99,42 -141,13 l -164,-112 c -42,-29 -110,-75 -152,-104 l -1303,-893 c -42,-29 -112,-31 -155,-5 l -271,152 c -45,24 -118,62 -163,85 l -280,143 c -45,23 -98,4 -117,-43 l -120,-290 c -19,-47 -51,-123 -70,-170 l -1131,-2727 c -19,-47 -51,-123 -70,-170 l -80,-193 c -19,-47 0,-106 43,-133 l 179,-109 c 33,-20 78,-55 113,-86 591,-377 999,-1014 1063,-1749 l 5998,0 0,329 134,-329 1750,0 z M 12066,8971 C 11896,7857 10932,7004 9769,7004 c -1283,0 -2323,1038 -2323,2319 0,821 428,1541 1072,1953 35,32 80,66 113,86 l 179,109 c 43,26 63,86 43,133 l -80,193 c -19,47 -51,123 -71,170 l -1131,2727 c -19,47 -51,123 -71,170 l -120,290 c -19,47 -72,66 -117,43 l -280,-143 c -45,-23 -119,-61 -163,-85 l -271,-152 c -44,-26 -113,-23 -155,5 l -1303,893 c -42,28 -110,75 -152,104 l -164,112 c -42,29 -105,23 -141,-13 l -141,-140 -130,-130 -407,-406 -130,-130 -407,-406 -130,-130 -140,-140 c -36,-36 -42,-99 -13,-141 l 112,-164 c 29,-42 76,-110 104,-151 l 914,-1330 c 29,-42 34,-113 12,-158 l -622,-1550 c -15,-48 -68,-95 -118,-105 l -1615,-300 c -50,-9 -131,-24 -181,-34 l -195,-36 c -50,-9 -91,-58 -91,-109 l 0,-198 0,-184 0,-574 0,-184 0,-574 0,-184 0,-198 c 0,-51 41,-99 91,-109 l 195,-36 c 50,-9 131,-24 181,-34 l 1665,-309 c 50,-9 104,-56 121,-104 l 626,-1457 c 23,-45 19,-116 -10,-158 L 3352,4640 c -29,-42 -76,-110 -104,-152 l -112,-163 c -29,-42 -23,-105 13,-141 l 140,-140 130,-130 407,-406 130,-130 407,-406 130,-130 140,-140 c 36,-36 99,-42 141,-13 l 164,112 c 42,29 110,75 152,104 l 1448,992 c 42,29 113,34 159,11 l 1415,-578 c 48,-16 95,-70 104,-119 l 323,-1732 c 9,-50 24,-131 34,-181 l 36,-195 c 9,-50 58,-90 109,-90 l 199,0 184,0 576,0 184,0 576,0 184,0 199,0 c 51,0 100,41 109,90 l 36,195 c 9,50 24,131 34,181 l 323,1732 c 9,50 56,103 104,119 l 1415,578 c 45,22 117,17 159,-11 l 1448,-992 c 42,-29 110,-75 152,-104 l 164,-112 c 42,-29 105,-23 141,13 l 140,140 130,130 407,406 130,130 407,406 130,130 140,140 c 36,36 42,99 13,141 l -112,163 c -29,42 -76,110 -104,152 l -973,1415 c -29,42 -33,113 -10,158 l 626,1457 c 17,48 71,94 121,104 l 1665,309 c 50,9 131,24 181,34 l 195,36 c 50,9 91,58 90,109 l 0,198 0,184 0,326 -6016,0 z m 4252,5201 1500,-3672 -22,4 c -50,9 -131,24 -181,34 l -1615,300 c -50,9 -103,56 -118,105 l -622,1550 c -22,45 -17,117 12,158 l 914,1330 c 29,42 76,110 104,151 l 28,40 z"
     class="fil0"
     inkscape:connector-curvature="0" /><path
     
     id="path12"
     d="m 21409,9401 -10805,0 c -72,396 -419,697 -837,697 -470,0 -850,-380 -850,-848 0,-469 381,-848 850,-848 418,0 765,301 837,697 l 10805,0 c 72,-396 419,-697 837,-697 469,0 850,380 850,848 0,469 -381,848 -850,848 -418,0 -765,-301 -837,-697 z"
     class="fil0"
     inkscape:connector-curvature="0" /><path
     id="path14"
     d="m 2517,16570 c 411,0 744,124 999,373 254,249 382,538 382,868 0,335 -129,625 -387,871 -258,246 -589,369 -994,369 -409,0 -742,-122 -999,-367 -257,-245 -385,-535 -385,-873 0,-331 127,-621 383,-868 255,-248 589,-372 1001,-372 z m 0,1978 c 228,0 412,-68 552,-204 140,-135 209,-314 209,-535 0,-222 -70,-400 -209,-536 -139,-135 -323,-203 -552,-203 -230,0 -414,68 -555,203 -140,135 -210,314 -210,536 0,221 70,399 210,535 140,136 325,204 555,204 z"
     class="fil1"
     inkscape:connector-curvature="0" /><path
     d="m 4779,17386 0,141 c 137,-118 293,-177 467,-177 212,0 391,80 538,241 146,161 219,357 219,591 0,262 -74,472 -221,631 -147,158 -342,237 -584,237 -150,0 -290,-37 -421,-112 l 0,889 -513,0 0,-2441 513,0 z m 0,460 0,753 c 97,72 196,108 298,108 125,0 224,-45 297,-134 73,-90 110,-211 110,-364 0,-156 -34,-278 -101,-364 -67,-87 -162,-130 -284,-130 -103,0 -209,44 -319,132 z"
     class="fil1"
     id="1"
     inkscape:connector-curvature="0" /><path
     d="m 7933,18513 0,323 c -196,143 -439,214 -728,214 -287,0 -517,-77 -689,-231 -172,-154 -258,-358 -258,-612 0,-249 81,-454 242,-615 162,-161 367,-241 617,-241 251,0 457,85 618,254 160,169 236,395 225,679 l -1172,0 c 11,148 63,263 158,343 94,80 221,120 381,120 192,0 394,-78 605,-233 z m -1133,-498 708,0 c -28,-240 -146,-360 -354,-360 -211,0 -329,120 -354,360 z"
     class="fil1"
     id="2"
     inkscape:connector-curvature="0" /><path
     d="m 8807,17386 0,230 c 151,-177 328,-265 531,-265 169,0 311,54 424,163 114,108 171,263 171,465 l 0,1037 -513,0 0,-994 c 0,-218 -85,-327 -254,-327 -121,0 -241,89 -358,269 l 0,1052 -513,0 0,-1629 513,0 z"
     class="fil1"
     id="3"
     inkscape:connector-curvature="0" /></g>
  
  
  
  
  
  
  
  
  
  <g
   class="oa-logo-adap"><path
     
     d="m 11416,16881 -492,1222 984,0 -492,-1222 z m -173,-332 372,0 1044,2466 -386,0 -251,-622 -1211,0 -251,622 -372,0 1055,-2466 z"
     class="fil2"
     id="4"
     inkscape:connector-curvature="0" /><path
     
     d="m 13218,18107 c -2,71 6,146 25,226 19,80 48,154 89,221 40,67 92,123 156,168 64,45 140,67 230,67 94,0 175,-21 242,-62 67,-41 122,-95 165,-161 42,-66 74,-138 94,-217 20,-79 30,-156 30,-231 0,-85 -11,-168 -34,-249 -22,-81 -55,-154 -99,-217 -44,-64 -99,-115 -166,-154 -67,-39 -146,-58 -235,-58 -90,0 -166,19 -230,58 -64,39 -116,90 -156,152 -40,62 -69,134 -87,214 -18,80 -25,161 -23,244 z m 1044,654 -7,0 c -21,33 -51,67 -89,102 -38,35 -82,67 -133,95 -51,28 -109,52 -175,71 -66,19 -139,28 -219,28 -137,0 -254,-28 -352,-83 -98,-55 -178,-129 -241,-221 -63,-92 -109,-196 -138,-313 -30,-117 -44,-236 -44,-359 0,-120 16,-236 48,-346 32,-111 80,-208 145,-291 65,-84 146,-150 242,-200 97,-49 211,-74 343,-74 158,0 284,28 379,83 94,55 168,124 219,207 l 7,0 0,-1095 333,0 0,2650 -319,0 0,-254 z"
     class="fil2"
     id="5"
     inkscape:connector-curvature="0" /><path
     
     d="m 16220,18157 c -35,0 -71,-1 -106,-4 -35,-2 -71,-4 -106,-4 -45,0 -103,3 -173,9 -71,6 -140,21 -207,44 -67,24 -125,58 -173,104 -48,46 -73,109 -73,189 0,47 11,89 32,125 21,37 48,67 80,92 32,25 68,44 108,57 40,13 79,19 117,19 165,0 290,-45 375,-136 85,-91 127,-203 127,-337 l 0,-159 z m -988,-816 c 83,-49 173,-90 273,-122 99,-32 207,-48 322,-48 260,0 445,62 558,187 112,125 168,311 168,558 l 0,745 c 0,104 1,182 4,235 2,53 6,92 11,118 l -312,0 0,-233 -7,0 c -19,28 -45,58 -78,90 -33,32 -73,61 -119,88 -46,27 -99,50 -159,69 -60,19 -128,28 -204,28 -97,0 -186,-11 -267,-32 -81,-21 -152,-55 -211,-101 -59,-46 -104,-104 -136,-175 -32,-71 -48,-155 -48,-254 0,-113 28,-207 83,-283 55,-75 124,-136 207,-182 83,-46 173,-79 273,-99 99,-20 191,-30 276,-30 66,0 125,0 177,0 52,0 111,2 177,7 0,-155 -32,-273 -97,-352 -65,-79 -181,-118 -349,-118 -94,0 -188,16 -281,49 -93,33 -174,78 -242,134 l -18,-283 z"
     class="fil2"
     id="6"
     inkscape:connector-curvature="0" /><path
     
     d="m 18478,18107 c 2,-80 -5,-160 -23,-240 -18,-80 -47,-152 -87,-216 -40,-64 -92,-115 -156,-154 -64,-39 -140,-58 -230,-58 -90,0 -168,19 -235,58 -67,39 -123,90 -168,154 -45,64 -78,136 -99,217 -21,81 -32,164 -32,249 0,75 10,153 30,231 20,79 51,151 94,217 42,66 97,120 165,161 67,41 148,62 242,62 90,0 166,-22 230,-67 64,-45 116,-101 156,-168 40,-67 70,-141 89,-221 19,-80 27,-155 25,-226 z m -1363,-894 319,0 0,254 7,0 c 21,-33 50,-67 87,-102 37,-35 81,-67 133,-95 52,-28 110,-52 175,-71 65,-19 137,-28 218,-28 130,0 244,25 342,74 98,49 179,116 244,200 65,84 113,181 145,291 32,111 48,226 48,346 0,125 -15,246 -44,362 -30,117 -76,220 -138,311 -63,91 -143,164 -241,219 -98,55 -215,83 -352,83 -160,0 -288,-28 -382,-83 -94,-55 -168,-124 -219,-207 l -7,0 0,989 -333,0 0,-2544 z"
     class="fil2"
     id="7"
     inkscape:connector-curvature="0" /><path
     
     d="m 20237,17482 -478,0 0,986 c 0,106 28,186 83,240 55,54 121,81 196,81 52,0 96,-6 133,-19 37,-13 68,-28 94,-44 l 0,283 c -38,12 -81,23 -129,34 -48,11 -100,16 -154,16 -172,0 -308,-42 -407,-125 -99,-84 -149,-216 -149,-397 l 0,-1053 -407,0 0,-268 407,0 0,-417 333,-106 0,523 478,0 0,268 z"
     class="fil2"
     id="8"
     inkscape:connector-curvature="0" /><path
     
     d="m 20655,17213 312,0 0,279 7,0 c 45,-94 110,-171 196,-231 86,-60 178,-90 274,-90 50,0 90,2 120,7 31,5 64,11 99,18 l 0,297 c -31,-12 -62,-20 -94,-25 -32,-5 -62,-7 -90,-7 -149,0 -268,66 -358,198 -90,132 -135,311 -135,537 l 0,820 -333,0 0,-1802 z"
     class="fil2"
     id="9"
     inkscape:connector-curvature="0" /><path
     
     d="m 22266,18114 c 0,80 11,160 34,240 22,80 57,153 103,217 46,65 104,117 175,157 71,40 156,60 255,60 97,0 181,-20 251,-60 71,-40 129,-92 175,-157 46,-65 80,-137 103,-217 22,-80 34,-160 34,-240 0,-85 -13,-168 -39,-249 -26,-81 -63,-154 -110,-217 -47,-64 -106,-114 -177,-152 -71,-38 -150,-57 -237,-57 -90,0 -169,19 -239,57 -70,38 -129,88 -177,152 -48,64 -86,136 -112,217 -26,81 -39,164 -39,249 z m -354,0 c 0,-137 22,-263 65,-378 44,-115 106,-215 188,-299 81,-84 178,-149 290,-196 112,-47 238,-71 377,-71 137,0 262,24 375,71 113,47 210,112 290,196 80,84 142,183 186,299 44,115 65,241 65,378 0,130 -22,251 -67,366 -45,114 -107,214 -188,300 -80,86 -177,154 -290,203 -113,49 -237,74 -372,74 -137,0 -261,-25 -373,-74 -112,-49 -209,-117 -290,-203 -81,-86 -145,-186 -189,-300 -45,-114 -67,-236 -67,-366 z"
     class="fil2"
     id="10"
     inkscape:connector-curvature="0" /><path
     
     d="m 24195,17213 322,0 0,286 7,0 c 50,-104 129,-184 237,-242 109,-58 227,-87 354,-87 234,0 405,68 513,205 109,137 163,326 163,569 l 0,1070 -333,0 0,-933 c 0,-212 -27,-370 -81,-473 -54,-104 -155,-160 -301,-170 -94,0 -176,18 -246,55 -70,37 -127,87 -172,152 -45,65 -78,143 -99,235 -21,92 -32,192 -32,300 l 0,834 -333,0 0,-1802 z"
     class="fil2"
     id="11"
     inkscape:connector-curvature="0" /><path
     
     d="m 26754,16811 -375,0 0,-374 375,0 0,374 z m -354,403 333,0 0,1802 -333,0 0,-1802 z"
     class="fil2"
     id="12"
     inkscape:connector-curvature="0" /><path
     id="13"
     d="m 27342,16365 333,0 0,1580 726,-732 453,0 -839,799 945,1003 -478,0 -807,-926 0,926 -333,0 z"
     
     inkscape:connector-curvature="0" /></g>
 </g>
</svg>